<?xml version="1.0" encoding="UTF-8"?>
<svg width="300" height="400" viewBox="0 0 300 400" fill="none" xmlns="http://www.w3.org/2000/svg">
  <!-- Coupe Glass -->
  <path d="M150 320 L140 300 C110 290,90 240,90 200 C90 140,150 100,150 100 C150 100,210 140,210 200 C210 240,190 290,160 300 L150 320" stroke="#E2E8F0" stroke-width="4" fill="none"/>
  <path d="M130 320 L170 320" stroke="#E2E8F0" stroke-width="4"/>
  <path d="M140 320 L140 350 L160 350 L160 320" stroke="#E2E8F0" stroke-width="4" fill="none"/>
  <path d="M130 350 L170 350" stroke="#E2E8F0" stroke-width="4"/>
  
  <!-- Layered Drink -->
  <path d="M150 105 C150 105,205 142,205 198 C205 235,187 282,160 292 L150 298 C150 298,115 282,95 198 C95 142,150 105,150 105" fill="url(#gradient)" opacity="0.95"/>
  
  <!-- Stars -->
  <g fill="white" opacity="0.8">
    <path d="M130 150 L133 145 L136 150 L133 155 Z">
      <animate attributeName="opacity" values="1;0.3;1" dur="2s" repeatCount="indefinite"/>
    </path>
    <path d="M170 160 L173 155 L176 160 L173 165 Z">
      <animate attributeName="opacity" values="1;0.3;1" dur="2.5s" repeatCount="indefinite"/>
    </path>
    <path d="M150 170 L153 165 L156 170 L153 175 Z">
      <animate attributeName="opacity" values="1;0.3;1" dur="3s" repeatCount="indefinite"/>
    </path>
  </g>
  
  <!-- Star Fruit Garnish -->
  <path d="M140 95 L160 95 L150 115 Z" fill="#FDE68A"/>
  
  <defs>
    <linearGradient id="gradient" x1="150" y1="105" x2="150" y2="298" gradientUnits="userSpaceOnUse">
      <stop offset="0%" stop-color="#93C5FD"/>
      <stop offset="33%" stop-color="#F9FAFB"/>
      <stop offset="66%" stop-color="#FDA4AF"/>
    </linearGradient>
  </defs>
</svg>
